<svg id="圖層_1" data-name="圖層 1" xmlns="http://www.w3.org/2000/svg" viewBox="0 0 341.09 40.09"><g id="NWHa2X.tif"><path d="M329.58,42.1c1.64-7,4.83-15.64,5.49-22.8.39-4.2,3.94-4.84,9.54-3.35.93.25,2.58,1.91,2.6,3,.12,10.23,0,20.46.11,30.68,0,2.91-1.36,3.59-4,3.63-2.94,0-3.69-1.33-3.66-3.93a115.4,115.4,0,0,0-1.12-20.46c-.68,2.49-1.42,5-2,7.46-1,4.17-2.06,8.33-2.84,12.55-.51,2.77-1.38,4.38-4.7,4.44-3.52.07-4.53-1.6-5.14-4.57-1.42-6.91-3.09-13.76-4.66-20.64l-1.49.16c0,6.81.09,13.62-.07,20.42,0,1.45-.5,3.52-1.51,4.18-2.67,1.72-5.59-.13-5.62-3.4-.08-9.73,0-19.46,0-29.19,0-2.28-.44-5.18,3.21-4.7,3.3.44,8-2.39,9.21,3.68,1.35,6.62,3,13.19,4.59,19.76a28.54,28.54,0,0,0,1.18,3.15Z" transform="translate(-6.23 -14.45)"/><path d="M131.06,39.29q2.2-9.26,4.41-18.51c1.38-5.78,1.86-6,8.81-4.51-.95,4-1.68,8-3.38,11.77a71.43,71.43,0,0,0-5.38,19.75c-.62,4.51-2.29,5.48-5.66,5.49-3.13,0-3.84-1.7-4.34-4.24-1.34-7-2.88-13.91-4.34-20.86H120c-1.45,6.91-3.07,13.79-4.29,20.73-.62,3.55-2.4,5-5.74,4.18a5.26,5.26,0,0,1-3.38-2.73C103.15,39.18,100,27.93,96.8,16.75c6.39-2.58,7.9-1.86,9.33,4.14S109,33,111.62,39.12c1.29-6.3,2.71-12.57,3.83-18.9.52-2.91,1.22-4.77,4.85-4.85s4.89,1.54,5.49,4.77c1.17,6.4,2.64,12.76,4,19.13Z" transform="translate(-6.23 -14.45)"/><path d="M6.23,16.4c6.93-1.94,7.7-1.52,9.2,4.82A102.68,102.68,0,0,0,20.84,39.1c.68-3.2,1.38-6.4,2-9.61.69-3.4,1.5-6.78,2-10.21.39-2.89,1.84-3.85,4.67-3.86s4.71.49,5.31,3.72c1.24,6.76,2.78,13.47,4.2,20.19l1.24,0c1.47-6.16,3-12.31,4.42-18.47,1.39-5.87,1.66-6,8.72-4.72a22.5,22.5,0,0,1-1.26,5.51,94.87,94.87,0,0,0-7.29,25.71c-.66,4.54-2.05,5.94-5.63,5.9-3,0-3.94-1.47-4.45-4.11a119,119,0,0,0-5.63-21Q27,38.17,25,48.19c-.54,2.58-.69,5.12-4.62,5.13-3.56,0-4.47-1.84-5.24-4.62-2.55-9.23-5.26-18.41-7.87-27.63C6.79,19.53,6.55,17.94,6.23,16.4Z" transform="translate(-6.23 -14.45)"/><path d="M218.46,34.12c1.22,6.79,2.26,12.56,3.3,18.32-7.93,1.7-8.81,1.07-9.13-6C212.33,39.7,206,35.88,200,39a3.83,3.83,0,0,0-1.44,2.77,50.9,50.9,0,0,0-.06,7.41c.16,3-1,4.09-4,4.12s-3.92-1.4-3.89-4.22c.11-9.73.13-19.47,0-29.2-.05-3.08.78-4.59,4.18-4.43,4.48.22,9,0,13.45.11,5.16.13,10.09.94,12.46,6.38C223,27.16,221.29,31.53,218.46,34.12Zm-13.4-12v.13c-1.33,0-3.09-.52-3.88.12-1.24,1-2.53,2.81-2.5,4.24,0,1.9,1,5.12,2.17,5.37a19.82,19.82,0,0,0,9.31-.28c1.47-.4,3.24-3,3.2-4.56s-1.87-3.54-3.43-4.55C208.72,21.84,206.71,22.26,205.06,22.15Z" transform="translate(-6.23 -14.45)"/><path d="M268.32,34.52c-.05-14.6,9.88-22.72,23.64-19.29a16.1,16.1,0,0,1,4.13,1.66c8,4.69,11.05,18.21,6.29,28-4.08,8.41-14,11.87-23.46,8.18C272.17,50.43,268.35,43.75,268.32,34.52Zm28.64.12c-.68-2.79-.59-6.1-2.19-8-2-2.39-5.38-4.94-8.22-5s-6.8,2.19-8.35,4.63a14.84,14.84,0,0,0,.06,16.39c1.6,2.44,5.57,4.71,8.39,4.62s6.08-2.74,8.15-5.13C296.34,40.39,296.28,37.27,297,34.64Z" transform="translate(-6.23 -14.45)"/><path d="M263.55,34.35c0,12.49-6.9,20-18.35,19.93q-12.36-.06-16.54-11.06c-3.21-8.43-1.25-19,4.52-24.47,4.71-4.42,14.14-5.59,20.63-2.57C259.94,19,263.55,25.77,263.55,34.35Zm-28.87.34c.77,2.72.8,6,2.47,7.86,2.1,2.32,5.57,4.79,8.4,4.73s6.63-2.53,8.16-5.05a14.63,14.63,0,0,0-.2-15.94c-1.63-2.44-5.52-4.71-8.34-4.65s-6.17,2.62-8.19,5C235.37,28.55,235.41,31.84,234.68,34.69Z" transform="translate(-6.23 -14.45)"/><path d="M57.4,34.56c-.12-14.36,9.5-22.5,23.14-19.42A16.89,16.89,0,0,1,86.76,18C93.36,23,95.63,35,91.94,44,88.82,51.63,82,55.16,72.41,54.13,63.21,53.14,57.48,45.67,57.4,34.56Zm28.31.12c.11-9.72-5.88-15.49-13.4-12.92-4.55,1.55-7.2,6.36-7.12,12.94s2.61,10.84,7.15,12.37C79.76,49.58,85.61,44.16,85.71,34.68Z" transform="translate(-6.23 -14.45)"/><path d="M166,54.27c-11.14-.08-17.88-7.56-17.9-19.85,0-12.45,7-20.07,18.41-19.92,11.08.15,18,7.79,17.94,19.93C184.47,46.81,177.46,54.34,166,54.27ZM177,34.2c-.75-2.68-1.09-5.55-2.34-8a9.36,9.36,0,0,0-16.33-.64c-3.33,5.64-3.63,11.94,0,17.32,1.63,2.4,5.73,4.52,8.56,4.34s6-3,8-5.4C176.35,40.05,176.27,37,177,34.2Z" transform="translate(-6.23 -14.45)"/></g></svg>